<svg xmlns="http://www.w3.org/2000/svg" width="451" height="320" viewBox="0 0 451 320">
    <style>
        .defaults {
            font-family: Roboto;
            stroke: black;
            stroke-width: 1px;
        }

        .mem {
            fill: hsl(220, 75%, 85%);
        }

        .mem circle {
            fill: black;
        }

        .cpu {
            fill: white;
        }

        .stack {
            fill: hsl(60, 75%, 85%)
        }

        text {
            font-family: inherit;
            font-size: 12px;
            stroke: none;
            fill: black;
            dominant-baseline: middle;
        }

        .label {
            text-anchor: middle;
            font-weight: bold;
        }

        .lines {
            stroke-width: 3px;
            str;
        }

        .lines polygon {
            stroke: none;
            fill: black;
        }
    </style>
    <g class="defaults">
        <g class="mem">
            <rect x="1" y="1" width="149" height="299" />

            <line x1="0" x2="150" y1="30" y2="30" />

            <text x="10" y="50">Global variables</text>

            <line x1="0" x2="150" y1="70" y2="70" />

            <text x="50" y="100">Object tree</text>
            <circle cx="30" cy="100" r="5" />
            <circle cx="30" cy="120" r="5" />
            <circle cx="50" cy="120" r="5" />
            <circle cx="70" cy="120" r="5" />
            <circle cx="50" cy="140" r="5" />
            <line x1="30" x2="30" y1="100" y2="120" />
            <line x1="30" x2="70" y1="120" y2="120" />
            <line x1="50" x2="50" y1="120" y2="140" />

            <line x1="0" x2="150" y1="170" y2="170" />

            <text x="10" y="190">Current routine</text>

            <line x1="0" x2="150" y1="210" y2="210" />

            <text x="10" y="230">Another routine</text>

            <line x1="0" x2="150" y1="250" y2="250" />

            <text x="75" y="310" class="label">Memory</text>
        </g>

        <g class="cpu">
            <rect x="200" y="25" width="100" height="100" />
            <text x="210" y="75">Processor</text>

            <rect x="200" y="170" width="40" height="40" />
            <text x="210" y="190">PC</text>
        </g>

        <g class="stack">
            <rect x="350" y="1" width="100" height="99" />
            <text x="360" y="20">Local</text>
            <text x="360" y="35">variables</text>
            <line x1="350" x2="450" y1="60" y2="60" />
            <text x="360" y="80">Temporary</text>
            <rect x="350" y="100" width="100" height="60" fill="white" />
            <text x="400" y="170" class="label">Stack</text>
        </g>

        <g class="hardware">
            <text x="250" y="280">Hardware accessed</text>
            <text x="250" y="295">indirectly</text>
        </g>

        <g class="lines">
            <line x1="155" x2="195" y1="50" y2="50" />
            <polygon points="150,50 160,45 160,55" />
            <polygon points="200,50 190,45 190,55" />

            <line x1="155" x2="195" y1="190" y2="190" />
            <polygon points="150,190 160,185 160,195" />
            <polygon points="200,190 190,185 190,195" />

            <line x1="210" x2="210" y1="130" y2="165" />
            <polygon points="210,125 215,135 205,135" />
            <polygon points="210,170 215,160 205,160" />

            <line x1="305" x2="345" y1="50" y2="50" />
            <polygon points="300,50 310,45 310,55" />
            <polygon points="350,50 340,45 340,55" />

            <line x1="305" x2="345" y1="100" y2="100" />
            <polygon points="300,100 310,95 310,105" />
            <polygon points="350,100 340,95 340,105" />

            <line x1="290" x2="290" y1="125" y2="270" stroke-dasharray="8,6" />

        </g>
    </g>
</svg>
